# xmcd CD database file
#
# Track frame offsets:
#	150
#	19560
#	32617
#	46967
#	69412
#	86495
#	106687
#	126720
#	150350
#
# Disc length: 2334 seconds
#
# Revision: 0
# Processed by: cddbd v1.5.1PL0 Copyright (c) Steve Scherf et al.
# Submitted via: CDex 1.51
#
DISCID=64091c09
DTITLE=水越恵子 - アクトレス
DYEAR=1900
DGENRE=JPop
TTITLE0=瞳のせい
TTITLE1=シンガポール
TTITLE2=Shampoo
TTITLE3=My Guy
TTITLE4=土曜のMaroc
TTITLE5=哀しくて
TTITLE6=ワンナイト
TTITLE7=Sing a Song
TTITLE8=ふり向けばloneliness
EXTD=
EXTT0=
EXTT1=
EXTT2=
EXTT3=
EXTT4=
EXTT5=
EXTT6=
EXTT7=
EXTT8=
PLAYORDER=
